<?xml version="1.0" encoding="UTF-8"?>
<svg width="24px" height="22px" viewBox="0 0 24 22" version="1.1" xmlns="http://www.w3.org/2000/svg" xmlns:xlink="http://www.w3.org/1999/xlink">
    <!-- Generator: Sketch 45.1 (43504) - http://www.bohemiancoding.com/sketch -->
    <title>para3 copy</title>
    <desc>Created with Sketch.</desc>
    <defs></defs>
    <g id="Page-1" stroke="none" stroke-width="1" fill="none" fill-rule="evenodd">
        <g id="para3-copy" fill-rule="nonzero" fill="#000000">
            <g id="3bcb8f81e505d403c789a461f7854ca5" transform="translate(12.000000, 11.000000) scale(-1, 1) translate(-12.000000, -11.000000) translate(1.000000, 0.000000)">
                <g id="Group" transform="translate(11.000000, 11.000000) scale(-1, 1) rotate(-180.000000) translate(-11.000000, -11.000000) ">
                    <path d="M9.9484898,21.9718526 C7.36910204,21.7050154 5.05146939,20.6072671 3.23602041,18.7860184 C1.29620408,16.8359672 0.176,14.3132856 0.0300816327,11.5494371 L0,10.9984237 L1.36916327,10.9984237 L2.74259184,10.9984237 L2.794,11.6354555 C2.8842449,12.7417605 3.11591837,13.6071238 3.5794898,14.571566 C4.95718367,17.4430502 7.84120408,19.2597953 11.021551,19.2640737 C13.3349184,19.2640737 15.6653469,18.1791607 17.236102,16.3669191 L17.4507143,16.1129171 L16.2748367,14.9334289 L15.0989592,13.7539406 L18.545102,13.7539406 L21.9872041,13.7539406 L21.9872041,17.2066121 L21.9872041,20.6635619 L20.6997551,19.3721597 L19.4123061,18.0807574 L19.1891633,18.3304811 C18.7,18.8900512 17.6011224,19.7941453 16.8158571,20.2850358 C15.4682449,21.1245036 13.9917755,21.6755169 12.4596327,21.9124053 C11.9226531,21.9934698 10.4892857,22.0279222 9.9484898,21.9718526 Z" id="Shape"></path>
                    <path d="M19.206,10.3656704 C19.1157551,9.25486182 18.8840816,8.38972364 18.4205102,7.42528147 C17.1716735,4.824913 14.6865714,3.07729785 11.8153469,2.77578301 C9.20587755,2.50466735 6.53646939,3.58507677 4.76389796,5.62992835 L4.54928571,5.8839304 L5.72516327,7.06341863 L6.90104082,8.24290686 L3.45489796,8.24290686 L0.0127959184,8.24290686 L0.0127959184,4.82040942 C0.0127959184,2.93903787 0.0255918367,1.39791198 0.042877551,1.39791198 C0.0599387755,1.39791198 0.635081633,1.96176049 1.32606122,2.65058342 L2.57489796,3.89897646 L3.08561224,3.39097236 C4.8927551,1.59201638 7.11161224,0.459815763 9.58369388,0.0765609007 C10.1889184,-0.0137359263 11.7639388,-0.0267963153 12.3518776,0.0549437052 C14.4248163,0.351954964 16.3132245,1.14841351 17.8453673,2.37969294 C20.0258367,4.13203685 21.4677347,6.66327533 21.8756327,9.44874104 C21.9142449,9.69846469 21.9571224,10.1461208 21.9699184,10.4516888 L22,10.9984237 L20.6308367,10.9984237 L19.2574082,10.9984237 L19.206,10.3656704 Z" id="Shape"></path>
                </g>
            </g>
        </g>
    </g>
</svg>